<?xml version="1.0" encoding="UTF-8"?>
<!DOCTYPE svg PUBLIC "-//W3C//DTD SVG 1.1//EN" "http://www.w3.org/Graphics/SVG/1.1/DTD/svg11.dtd">
<svg xmlns="http://www.w3.org/2000/svg" style="background: transparent; background-color: transparent; color-scheme: light dark;" xmlns:xlink="http://www.w3.org/1999/xlink" version="1.1" width="201px" height="101px" viewBox="-0.5 -0.5 201 101"><defs/><g><g data-cell-id="0"><g data-cell-id="1"><g data-cell-id="t81F_vncvnFfPtr4ebDE-2"><g><ellipse cx="50" cy="50" rx="50" ry="50" fill="#ffffff" stroke="#000000" pointer-events="all" style="fill: rgb(255, 255, 255); stroke: light-dark(rgb(0, 0, 0), rgb(255, 255, 255));"/></g></g><g data-cell-id="t81F_vncvnFfPtr4ebDE-3"><g><ellipse cx="190" cy="50" rx="10" ry="10" fill="#ffffff" stroke="#000000" pointer-events="all" style="fill: rgb(255, 255, 255); stroke: light-dark(rgb(0, 0, 0), rgb(255, 255, 255));"/></g></g><g data-cell-id="t81F_vncvnFfPtr4ebDE-4"><g><path d="M 180 50 L 100 50" fill="none" stroke="#000000" stroke-width="7" stroke-miterlimit="10" pointer-events="stroke" style="stroke: light-dark(rgb(0, 0, 0), rgb(255, 255, 255));"/></g></g><g data-cell-id="t81F_vncvnFfPtr4ebDE-17"><g><g><svg height="51.11" width="79" id="Ebene_1" version="1.2" viewBox="0 0 758.9000244140625 491.0999755859375" xmlns="http://www.w3.org/2000/svg" x="10" y="24.5" style="font-family: initial;">&#xa;  <polygon points="169.2 245.1 0 245.1 0 170.9 169.2 170.9 169.2 245.1 169.2 245.1" fill="#006ba1"/>&#xa;  <polygon points="169.2 330.6 0 330.6 0 256.4 169.2 256.4 169.2 330.6 169.2 330.6" fill="#195632"/>&#xa;  <polygon points="169.2 159.7 0 159.7 0 85.4 169.2 85.4 169.2 159.7 169.2 159.7" fill="#f7be00"/>&#xa;  <polygon points="259.5 0 259.5 330.6 180.5 330.6 180.5 0 259.5 0 259.5 0" fill="#643a2a"/>&#xa;  <polygon points="349.7 0 349.7 330.6 270.7 330.6 270.7 0 349.7 0 349.7 0" fill="#003b5c"/>&#xa;  <polygon points="169.2 74.2 0 74.2 0 0 169.2 0 169.2 74.2 169.2 74.2" fill="#ae1757"/>&#xa;  <path d="M543.7,0l-168.5,265.9v65h171.1v59l67-64.1v-67.2c0-14.5,4.6-24.3,9.6-30.2,7.1-8.5,17.2-12.7,30.3-12.7s22.4,4,30.2,11.9c7.8,7.9,11.7,18,11.7,30.2s-2.8,18.8-8.5,28.9c-5.6,10.1-14,20.3-25.2,30.7l-117.5,109.9v63.8h213.6v-65.7h-132.6l85.7-77.9c16.5-14.7,28.6-29.4,36.5-44.1s11.8-29.7,11.8-45.2c0-28-10-51.8-30-71.2-20-19.4-44.8-29.1-74.3-29.1s-57.6,10.1-77,30.4c-18.9,19.6-28.4,45.6-28.9,77.6h-105.8l103.6-162.8v79.5c2.8-3.7,5.2-7.6,8.5-10.9,15.8-16.5,35.5-26.9,58.5-31.7V0h-69.6Z" fill="#333f49"/>&#xa;</svg></g></g></g></g></g></g></svg>